<?xml version="1.0" encoding="utf-8"?>
<!-- Generator: Adobe Illustrator 27.3.1, SVG Export Plug-In . SVG Version: 6.00 Build 0)  -->
<svg version="1.1" id="Calque_1" xmlns="http://www.w3.org/2000/svg" xmlns:xlink="http://www.w3.org/1999/xlink" x="0px" y="0px"
	 viewBox="0 0 1965.3 381.2" xml:space="preserve" style="background-color: transparent;">
<style type="text/css">
	.st1{opacity:0.75;fill:#696B73;}
	.st2{fill:#696B73;}
	.st3{fill:#E76263;}
</style>
<g>
	<path class="st1" d="M1382.1,133.9c-10-12-22.7-19.7-37.4-24.3c-12.1-3.8-24.7-4.2-37.3-3c-16.6,1.6-30.2,9.3-41.6,21.1
		c-2.2,2.3-4.1,4.9-6.6,7.9c-0.2-7.4-0.5-14.2-0.6-20.9c-0.1-4.8,0-4.8-4.7-4.8c-9.9,0-19.8,0.1-29.7,0c-2.2,0-3,0.8-3,2.9
		c0,1.5-0.1,3.1-0.1,4.6c0,59.7,0,119.4-0.1,179h0v54.3l38.2-15.3v-3.4c0,0,0-0.1,0-0.1c0-30.4,0-45.6,0.1-76c0-1.3,0.2-2.5,0.3-4.7
		c1.5,1.7,2.5,2.7,3.4,3.8c5.5,6.7,11.7,12.6,19.4,16.5c19.8,10.1,40.5,10.7,61.6,4.9c11.5-3.2,22.2-8.3,31-16.6
		c10.7-10,18.3-21.9,23.2-35.8c6-17.2,6.4-34.6,2.8-52.1C1398.1,157.6,1391.5,145.1,1382.1,133.9z M1360.1,212.4
		c-6.3,17.9-18.9,28.8-37.6,32.4c-3.6,0.7-7.3,0.6-10.9,0.9c-10.1,0.1-19.5-2-28.1-7.2c-11.5-6.9-18.3-17.2-21.7-29.8
		c-3.7-13.9-3.3-27.9,3.7-40.7c8.5-15.7,21.8-25.2,39.8-27.6c13-1.7,25.4,0.5,36.1,8.2c12.2,8.6,19.1,20.7,21.2,35.7
		C1363.9,193.7,1363.3,203.2,1360.1,212.4z"/>
	<path class="st2" d="M1162.4,133.2c-12.3-12.5-26.5-21.2-43.7-24.7c-10.7-2.2-21.4-2.6-32.2-2.1c-12.4,0.5-24,3.9-34.6,9.3
		c-19.7,10.1-34.5,25.4-41.7,47c-4.1,12.1-5.4,24.5-4.7,37.3c0.6,10.5,3.6,20.4,7.5,30.1c3,7.6,7.1,14.6,12.8,20.3
		c18.7,18.8,41.1,29.3,68,29.4c10.1,0,20-1.1,29.7-3.9c10.2-2.9,19.9-6.8,28.4-13.1c12.6-9.4,21.9-21.2,27.8-36
		c6.7-17,7.9-34.3,4.5-51.9C1181,158.9,1173.9,145,1162.4,133.2z M1135.3,227.6c-6.8,9.1-16.3,14.6-27.5,17c-4,0.9-8,1.2-12.1,1.8
		c-11.8-0.2-22.6-3.2-31.7-10.6c-10.6-8.7-16.9-20.1-18.3-33.7c-0.7-6.6-0.6-13.5,0.3-20c2.9-19.8,14.4-33.3,33.2-39.8
		c24.5-8.4,51.5,1.8,62,26.7C1149.6,188.9,1148.8,209.3,1135.3,227.6z"/>
	<path class="st1" d="M1763.8,146.7c-5.2-7.7-10.8-15.1-18.2-20.9c-17.4-13.6-37.2-20.4-59.4-20.2c-6.3,0.6-12.7,0.6-18.8,1.8
		c-20.2,4.1-37.3,13.5-50.9,29.3c-12.4,14.4-19,31.1-20.3,49.8c-1.1,16.4,1.7,32.2,9.7,46.9c11.9,21.8,29.5,36.4,53.5,42.9
		c12.2,3.3,24.7,3.9,37.3,2.7c22.2-2.1,41.3-10.1,57-26.7c19.5-20.7,25.6-45,22.2-72.4C1774.3,168,1770.6,156.9,1763.8,146.7z
		 M1737.3,200.4c-0.8,12.1-5.9,22.3-14.1,30.7c-9.8,10-21.8,15.6-36.5,14.3c-9.9,0.8-19.3-1.6-27.8-6.9c-12.9-8.1-19.8-20.3-22.2-35
		c-1.7-10.4-0.7-20.6,2.6-30.7c3.3-10.1,9.6-17.6,17.8-23.8c15.2-11.4,31.8-11.6,48.9-6.1c10.3,3.3,17.4,11.1,23.6,19.6
		C1738.1,173.9,1738.2,187,1737.3,200.4z"/>
	<path class="st2" d="M730.6,115c-18.1-9.3-37.6-10.5-57.3-8c-13.8,1.7-26.7,6.7-38.1,14.9c-14.6,10.4-25.6,23.6-31.2,40.8
		c-4.3,13.1-6.9,26.3-5.1,40.2c1.9,14.9,6.8,28.5,15.2,40.8c11.2,16.3,27.3,25.9,45.7,32.1c15.5,5.2,31.5,4.7,47.3,2.1
		c19.3-3.2,36.4-11.8,49.8-26.2c15.1-16.2,22.1-36.1,22.9-58.3c-0.8-5.8-1.6-11.7-2.5-17.5C772.4,147.4,755.6,127.9,730.6,115z
		 M732.5,221c-6.7,12.7-17.5,21.1-32.1,23.6c-3.9,0.7-7.9,1.1-11.8,1.6c-19.7,0-34.4-8.6-44.2-25.4c-5.6-9.5-6.5-20.1-6.2-30.7
		c0.3-12.6,4-24.1,12.7-33.6c14.1-15.4,31.5-20.4,51.7-15.3c14.9,3.8,25.2,13.5,31.6,27.1C742.6,186.2,741.5,204.1,732.5,221z"/>
	<path class="st2" d="M972.1,218.4c0-16.9,0-33.8-0.1-50.7c-0.1-13.4-4.1-25.6-12-36.5c-8.3-11.5-19.2-19.3-33.1-22.6
		c-10-2.4-20.3-3.1-30.7-2.1c-17.6,1.7-31.7,9.2-42.2,23.4c-1.1,1.4-2,3-3,4.5c-0.3-0.1-0.6-0.2-0.8-0.3c-0.1-1-0.2-2-0.2-2.9
		c0-5.5,0.1-11,0.1-16.5c0.1-4.7,0-4.9-4.7-4.8c-9.4,0.1-18.8,0.2-28.2,0.3c-4.6,0-4.6,0-4.6,4.5c0,52.7,0,105.5-0.1,158.2
		c0,2.5,0.8,3.2,3.2,3.2c9.6-0.1,19.2,0,28.8-0.1c6.6,0,6.6,0,6.4-6.7c0-0.3,0-0.6,0-0.9c0-28.8-0.2-57.6,0.1-86.5
		c0.1-8.8,3-17.2,8.5-24.1c10.6-13.2,24.5-19.1,41.6-16.8c15.7,2.1,26.6,11.2,30.5,25.9c1.1,4.4,1.7,9,1.7,13.6
		c0.2,30.5,0.1,61.1,0.1,91.6c0,2.8,0.6,4,3.7,3.9c10.7-0.2,21.4-0.2,32.1-0.1c2.4,0,3.1-0.7,3.1-3.2
		C972,254.7,972.1,236.5,972.1,218.4z"/>
	<path class="st2" d="M541.8,183c-12.6-4.6-26-6-39.1-8.7c-6.7-1.4-13.7-3-19.8-6c-10.3-5.1-11-19.2-1.7-25.8
		c3.4-2.4,7.5-4.3,11.6-5.2c10.3-2.1,20.8-1.7,31,0.8c10.3,2.5,19.9,6.6,28.5,13c1.7,1.3,3.4,2,4.9-0.4c4.2-6.6,8.5-13.2,12.9-19.7
		c1.8-2.6,1.2-4.3-1.2-6.1c-10.2-7.5-21.6-12.2-33.8-15.3c-13.9-3.5-27.9-4.6-42.2-3c-15.1,1.7-28.8,6.9-40.5,16.5
		c-8.9,7.2-13.7,16.9-14.9,28.2c-1.5,14,1.2,27,12.9,36.3c5,4,10.9,7.1,16.8,9.8c14.5,6.6,30.5,8.1,45.8,11.9
		c7.1,1.8,14.3,3.2,20.5,7.6c8.1,5.7,9,15.7,2,22.7c-4.6,4.6-10.4,6.4-16.4,7.6c-18.3,3.4-35.8,0.1-52.2-8.1
		c-5.7-2.8-10.9-6.6-16.3-10.1c-1.5-1-2.5-1-3.5,0.7c-1.2,2-2.6,3.9-3.9,5.8c-3.5,5.3-7,10.5-10.5,15.8c-1.1,1.7-1.5,3.2,0.5,4.8
		c11.9,9.1,24.9,15.9,39.3,19.9c10.6,3,21.5,3.5,31.9,3.8c18.3-0.1,35.2-3.5,50.8-12.9c12.2-7.3,19.7-17.6,22.1-31.3
		c1.7-10,1.1-19.9-4.1-29.1C566.1,194,554.5,187.6,541.8,183z"/>
	<path class="st1" d="M1917.7,266.9c-2.9-8-5.9-16-8.8-24.1c-1-2.8-2.5-3.1-5.1-1.6c-6.3,3.5-13.1,5.2-20.3,4.7
		c-9.4-0.6-17.9-5.2-19.4-16.4c-0.3-2.4-0.9-4.8-0.9-7.3c-0.1-24.5,0-49.1,0-73.6c0-0.7,0.2-1.4,0.1-2.1c-0.1-3,1.2-4,4.2-3.9
		c14.2,0.2,28.4,0.1,42.6,0.1c4.2,0,4.4-0.2,4.4-4.2c0-8.1-0.1-16.3,0-24.4c0-2.9-0.9-3.8-3.9-3.8c-14.5,0.1-29-0.1-43.5,0
		c-2.6,0-3.6-0.8-3.6-3.5c0-10.5-0.3-21-0.4-31.5c0-2.9,0.4-5.9,0.3-8.8c0-0.8-1.3-2.2-2-2.2c-11-0.3-22-0.3-33-0.4
		c-3.8,0-3.9,0-3.9,3.9c0,12.9-0.1,25.9,0,38.8c0,2.8-0.9,3.8-3.7,3.7c-8.4-0.1-16.7,0.1-25.1,0c-2.6,0-3.7,0.8-3.6,3.5
		c0.1,8.5,0.1,16.9-0.1,25.4c-0.1,2.8,0.8,3.7,3.6,3.7c8.3-0.2,16.5-0.1,24.8-0.1c4,0,4.1,0.1,4.1,4.1c0,13.8,0,27.7,0,41.5
		c0,0,0,0-0.1,0c0,1,0,2,0,3.1c0.2,15-0.4,30,0.8,44.9c1.6,19.5,15,36,35.7,41.1c19,4.7,37.5,1.8,55-6.8
		C1917.6,269.7,1918.3,268.7,1917.7,266.9z"/>
	<path class="st1" d="M1556.4,32.6c-9.7,0-19.4-0.1-29.1-0.1c-4.2,0-4.2,0-4.2,4.2c0,39.2,0,78.4,0,117.6c0,0-0.1,0-0.1,0
		c0,39.6,0,79.2-0.1,118.8c0,2.6,1.2,2.8,3.1,2.8c10.3,0,20.6,0,30.9,0c4.1,0,4.1,0,4.1-4.1c0-20,0-39.9,0-59.9
		c0-58.2,0-116.5,0-174.7C1561.1,32.6,1561.1,32.6,1556.4,32.6z"/>
	<path class="st1" d="M1477.1,193.1c-0.1,0-0.3,0-0.4,0c0-26.3,0-52.5,0-78.8c0-2.4-0.1-4.1-3.3-4.1c-10.4,0.1-20.8,0.1-31.2,0
		c-2.8,0-3.7,0.9-3.7,3.7c0.1,52.6,0.1,105.3,0.1,157.9c0,3.8,0.2,4,3.9,4c10.2,0,20.4-0.1,30.6,0c3,0,4.1-0.8,4.1-4
		C1477.1,245.6,1477.1,219.3,1477.1,193.1z"/>
	<path class="st1" d="M1458.2,30.7c-12.7-0.2-23.8,9.3-24.3,24.9c-0.4,12.3,10.9,22.2,25,22.2c12.6,0,23.9-11,23.8-23.1
		C1482.5,41.1,1471.8,30.6,1458.2,30.7z"/>
</g>
<path class="st3" d="M366.9,217.9c-3.9-19.9-17.3-35.7-23.7-34.5c-3.4,0.6-5.6,5.6-6.3,13.1c-0.2,1.6-2.4,2-3,0.4
	c-12.5-30.2-32.8-51.2-42.6-49c-6.1,1.4-9.4,11.5-9.7,26.5c-0.1,5.6-7.8,7-9.8,1.8l-16.8-42.4l-36.2-91.3c-1-2.4-2.6-4.6-4.8-6.1
	c-3.1-2.1-6-2.8-9.6-1.5c-3.5,1.3-6.2,4.1-7.6,7.6c0,0-36.2,91.3-36.2,91.3l-16.8,42.4c-2.1,5.2-9.7,3.8-9.8-1.8
	c-0.3-15-3.6-25.1-9.7-26.5c-9.7-2.3-30.1,18.8-42.6,49c-0.6,1.5-2.9,1.2-3-0.4c-0.7-7.5-2.9-12.5-6.3-13.1
	c-6.5-1.1-19.8,14.6-23.7,34.5c-3.9,19.9,3.2,36.4,9.6,37.6c2.7,0.5,5.7-1.9,8.6-6.2c1.2-1.9,4.1-1,4.2,1.2
	c0.3,24.1,8,41.4,16.2,43.3c7.2,1.7,15.8-12.9,24.5-30.4c2-4,6.8-5.3,10.6-3.3c4.7,2.4,5.9,7.7,7.9,12.1c9.5,21.1,32.5,8.8,39.7-8.6
	c0-0.1,18.6-48.8,26.3-69.7c1.1-2.9,2.2-5.9,4.2-8.3c3.1-4,7.7-5.5,12.1-2.7c3.8,2.5,5.6,7,7,11c7.7,20.8,26.3,69.6,26.3,69.7
	c7.2,17.5,30.2,29.7,39.7,8.6c2-4.4,3.2-9.7,7.9-12.1c3.9-2,8.6-0.7,10.6,3.3c8.7,17.5,17.3,32,24.5,30.4
	c8.2-1.9,15.9-19.3,16.2-43.3c0-2.2,2.9-3.1,4.2-1.2c2.9,4.3,5.9,6.7,8.6,6.2C363.8,254.3,370.8,237.8,366.9,217.9z"/>
<path class="st3" d="M224.6,292l11.2,3c3,0.8,3,5.1,0,5.9l-11.2,3c-5.3,1.4-9.5,5.6-11,11l-3,11.2c-0.8,3-5.1,3-5.9,0l-3-11.2
	c-1.4-5.3-5.6-9.5-11-11l-11.2-3c-3-0.8-3-5.1,0-5.9l11.2-3c5.3-1.4,9.5-5.6,11-11l3-11.2c0.8-3,5.1-3,5.9,0l3,11.2
	C215.1,286.4,219.3,290.5,224.6,292z"/>
</svg>
