<?xml version="1.0" encoding="utf-8"?>
<!-- Generator: Adobe Illustrator 27.3.1, SVG Export Plug-In . SVG Version: 6.00 Build 0)  -->
<svg version="1.1" id="Calque_1" xmlns="http://www.w3.org/2000/svg" xmlns:xlink="http://www.w3.org/1999/xlink" x="0px" y="0px"
	 viewBox="0 0 411.5 381.2" style="enable-background:new 0 0 411.5 381.2;" xml:space="preserve">
<style type="text/css">
	.st1{fill:#E76263;}
</style>
<path class="st1" d="M366.9,217.9c-3.9-19.9-17.3-35.7-23.7-34.5c-3.4,0.6-5.6,5.6-6.3,13.1c-0.2,1.6-2.4,2-3,0.4
	c-12.5-30.2-32.8-51.2-42.6-49c-6.1,1.4-9.4,11.5-9.7,26.5c-0.1,5.6-7.8,7-9.8,1.8l-16.8-42.4l-36.2-91.3c-1-2.4-2.6-4.6-4.8-6.1
	c-3.1-2.1-6-2.8-9.6-1.5c-3.5,1.3-6.2,4.1-7.6,7.6c0,0-36.2,91.3-36.2,91.3l-16.8,42.4c-2.1,5.2-9.7,3.8-9.8-1.8
	c-0.3-15-3.6-25.1-9.7-26.5c-9.7-2.3-30.1,18.8-42.6,49c-0.6,1.5-2.9,1.2-3-0.4c-0.7-7.5-2.9-12.5-6.3-13.1
	c-6.5-1.1-19.8,14.6-23.7,34.5c-3.9,19.9,3.2,36.4,9.6,37.6c2.7,0.5,5.7-1.9,8.6-6.2c1.2-1.9,4.1-1,4.2,1.2
	c0.3,24.1,8,41.4,16.2,43.3c7.2,1.7,15.8-12.9,24.5-30.4c2-4,6.8-5.3,10.6-3.3c4.7,2.4,5.9,7.7,7.9,12.1c9.5,21.1,32.5,8.8,39.7-8.6
	c0-0.1,18.6-48.8,26.3-69.7c1.1-2.9,2.2-5.9,4.2-8.3c3.1-4,7.7-5.5,12.1-2.7c3.8,2.5,5.6,7,7,11c7.7,20.8,26.3,69.6,26.3,69.7
	c7.2,17.5,30.2,29.7,39.7,8.6c2-4.4,3.2-9.7,7.9-12.1c3.9-2,8.6-0.7,10.6,3.3c8.7,17.5,17.3,32,24.5,30.4
	c8.2-1.9,15.9-19.3,16.2-43.3c0-2.2,2.9-3.1,4.2-1.2c2.9,4.3,5.9,6.7,8.6,6.2C363.8,254.3,370.8,237.8,366.9,217.9z"/>
<path class="st1" d="M224.6,292l11.2,3c3,0.8,3,5.1,0,5.9l-11.2,3c-5.3,1.4-9.5,5.6-11,11l-3,11.2c-0.8,3-5.1,3-5.9,0l-3-11.2
	c-1.4-5.3-5.6-9.5-11-11l-11.2-3c-3-0.8-3-5.1,0-5.9l11.2-3c5.3-1.4,9.5-5.6,11-11l3-11.2c0.8-3,5.1-3,5.9,0l3,11.2
	C215.1,286.4,219.3,290.5,224.6,292z"/>
</svg>
